# xmcd
# 
# Track frame offsets:
#     180
#     12005
#     25028
#     35575
#     49252
#     59909
#     68721
#     82119
#     92731
#     102788
#     111620
#     122769
#     133993
#     145843
# 
# Disc length: 2100
# 
# Revision: 1
# Processed by: cddbd v1.5.2PL0 Copyright (c) Steve Scherf et al.
# Submitted via: fre:ac v1.0.31
# 
DISCID=cc08320e
DTITLE=Patsy Cline - 28 Great Contry Songs
DYEAR=0
DGENRE=Country
TTITLE0=Walking after midnight
TTITLE1=Fingerprints
TTITLE2=Honky Tonk merry go round
TTITLE3=Life's railway to heaven
TTITLE4=I can see an angel
TTITLE5=Ain't no wheels on this ship
TTITLE6=If I could see the world
TTITLE7=I don't wona
TTITLE8=Pick me up on your way down
TTITLE9=Come on in
TTITLE10=Hidin' out
TTITLE11=Hungry for love
TTITLE12=If I could only stay asleep
TTITLE13=Cry not for me
EXTD=Patsy Cline - 28 Great Contry Songs by Unicron
EXTT0=
EXTT1=
EXTT2=
EXTT3=
EXTT4=
EXTT5=
EXTT6=
EXTT7=
EXTT8=
EXTT9=
EXTT10=
EXTT11=
EXTT12=
EXTT13=
PLAYORDER=
